<svg width="40" height="40" viewBox="0 0 40 40" fill="none" xmlns="http://www.w3.org/2000/svg">
  <rect width="40" height="40" rx="8" fill="#4F46E5"/>
  <path d="M20 8C13.373 8 8 13.373 8 20C8 26.627 13.373 32 20 32C26.627 32 32 26.627 32 20C32 13.373 26.627 8 20 8ZM20 12C22.21 12 24 13.79 24 16C24 18.21 22.21 20 20 20C17.79 20 16 18.21 16 16C16 13.79 17.79 12 20 12ZM20 30.4C17 30.4 14.3 29.03 12.5 26.96C12.53 23.48 19 21.6 20 21.6C20.99 21.6 27.47 23.48 27.5 26.96C25.7 29.03 23 30.4 20 30.4Z" fill="white"/>
</svg>
